# xmcd
#
# Track frame offsets:
#	150
#	16064
#	33898
#	50928
#	68155
#	84805
#	100493
#	115691
#	135065
#	151038
#	169467
#
# Disc length: 2487 seconds
#
# Revision: 0
# Processed by: cddbd v1.5.2PL0 Copyright (c) Steve Scherf et al.
# Submitted via: dBpowerAMP V4.0
#
DISCID=7c09b50b
DTITLE=Marcus Vinicius - O Verbo
DYEAR=2005
DGENRE=Mpb
TTITLE0=Menos Seguro
TTITLE1=Titanic
TTITLE2=Me Abraça e Me Beija
TTITLE3=Sem Janeiro
TTITLE4=O Verbo
TTITLE5=Tempo Rei
TTITLE6=Negras Perucas
TTITLE7=Bege
TTITLE8=Encarte
TTITLE9=Pro Meu Futuro
TTITLE10=Luana
EXTD=
EXTT0=
EXTT1=
EXTT2=
EXTT3=
EXTT4=
EXTT5=
EXTT6=
EXTT7=
EXTT8=
EXTT9=
EXTT10=
PLAYORDER=
